<svg width="24" height="24" viewBox="0 0 24 24" fill="none" xmlns="http://www.w3.org/2000/svg">
<g id="gold-jewels-outline">
<path id="Vector" d="M12 2.75V5" stroke="#191307" stroke-width="1.5" stroke-linecap="round" stroke-linejoin="round"/>
<path id="Vector_2" d="M6.75 4.07129L7.875 6.01985" stroke="#191307" stroke-width="1.5" stroke-linecap="round" stroke-linejoin="round"/>
<path id="Vector_3" d="M17.25 4.07129L16.125 6.01985" stroke="#191307" stroke-width="1.5" stroke-linecap="round" stroke-linejoin="round"/>
<path id="Vector_4" d="M2.58789 7.66211L4.53645 8.78711" stroke="#191307" stroke-width="1.5" stroke-linecap="round" stroke-linejoin="round"/>
<path id="Vector_5" d="M21.4121 7.66211L19.4636 8.78711" stroke="#191307" stroke-width="1.5" stroke-linecap="round" stroke-linejoin="round"/>
<path id="Vector_6" d="M15.2812 9.5H8.71875C8.45987 9.5 8.25 9.83579 8.25 10.25V14C8.25 14.4142 8.45987 14.75 8.71875 14.75H15.2812C15.5401 14.75 15.75 14.4142 15.75 14V10.25C15.75 9.83579 15.5401 9.5 15.2812 9.5Z" stroke="black" stroke-width="1.5" stroke-linecap="round" stroke-linejoin="round"/>
<path id="Vector_7" d="M11.6591 14.75H4.84091C4.65263 14.75 4.5 15.0858 4.5 15.5V19.25C4.5 19.6642 4.65263 20 4.84091 20H11.6591C11.8474 20 12 19.6642 12 19.25V15.5C12 15.0858 11.8474 14.75 11.6591 14.75Z" stroke="black" stroke-width="1.5" stroke-linecap="round" stroke-linejoin="round"/>
<path id="Vector_8" d="M19.1591 14.75H12.3409C12.1526 14.75 12 15.0858 12 15.5V19.25C12 19.6642 12.1526 20 12.3409 20H19.1591C19.3474 20 19.5 19.6642 19.5 19.25V15.5C19.5 15.0858 19.3474 14.75 19.1591 14.75Z" stroke="black" stroke-width="1.5" stroke-linecap="round" stroke-linejoin="round"/>
</g>
</svg>
