<svg width="42" height="42" viewBox="0 0 42 42" fill="none" xmlns="http://www.w3.org/2000/svg">
<g id="shipped">
<rect id="Rectangle 18229" x="4.66602" y="18.083" width="33.8333" height="18.6667" fill="#BBF4D9"/>
<path id="Vector" d="M39.0406 16.5562L22.3484 5.47177C22.1197 5.32693 21.8543 5.25 21.5833 5.25C21.3123 5.25 21.047 5.32693 20.8183 5.47177L4.12602 16.5562C3.93208 16.6816 3.77303 16.8536 3.66361 17.0565C3.55419 17.2593 3.49793 17.4864 3.50006 17.7166V35.7289C3.50006 36.4638 3.79317 37.1687 4.3149 37.6884C4.83663 38.208 5.54426 38.5 6.2821 38.5H36.8846C37.6224 38.5 38.33 38.208 38.8518 37.6884C39.3735 37.1687 39.6666 36.4638 39.6666 35.7289V17.7166C39.6687 17.4864 39.6125 17.2593 39.5031 17.0565C39.3936 16.8536 39.2346 16.6816 39.0406 16.5562ZM6.2821 35.7289V19.8178L17.7406 28.5413C17.9734 28.7091 18.2531 28.8 18.5405 28.8011H24.6262C24.9135 28.8 25.1933 28.7091 25.426 28.5413L36.8846 19.8178V35.7289H6.2821Z" fill="#BBF4D9"/>
<path id="Vector_2" d="M38.5171 16.1506C39.3673 16.7272 39.3995 17.9684 38.5803 18.5883L25.5209 28.4702C25.1735 28.7331 24.7497 28.8753 24.3141 28.8753H18.8513C18.4157 28.8753 17.9919 28.7331 17.6445 28.4702L4.58504 18.5883C3.76589 17.9684 3.79809 16.7272 4.64828 16.1506L20.4602 5.42819C21.1379 4.96858 22.0274 4.96858 22.7052 5.42819L38.5171 16.1506Z" fill="#86ADE0"/>
</g>
</svg>
